<?xml version="1.0" encoding="UTF-8"?>
<svg width="700pt" height="700pt" version="1.1" viewBox="0 0 700 700"
  xmlns="http://www.w3.org/2000/svg" xmlns:xlink="http://www.w3.org/1999/xlink">
  <g>
    <path
      fill="#F8F8F2"
      d="m599.82 236.25c0.20703-3.8984 0.35938-7.8398 0.35938-11.805 0.003907-123.95-112.01-224.45-250.21-224.45-138.16 0-250.14 100.5-250.14 224.44 0 3.9648 0.10547 7.9062 0.36328 11.805h-0.085938c-2.2461 44.469 10.617 80.617 10.617 80.617 21.941 50.398 22.965 65.375 25.598 81.988 2.5664 16.613-5.8281 29.566-4.4727 41.883 1.3555 12.332 13.574 17.203 20.148 20.125 6.6094 2.957 21.207-2.5977 21.207-2.5977 23.961-13.559 29.188-18.043 49.648-6.4336 15.883 8.9805 25.949 40.969 29.703 55.031 0.027344 0.46094 0.10547 0.95312 0.24219 1.4883l9.4531 36.348c1.0742 4.1172 5.2656 8.1641 9.3242 8.9805 4.0547 0.81641 7.8398-1.9609 8.418-6.1758l3.4844-25.473c1.2539 0.14062 2.5664 0.27344 3.8867 0.40234l-1.3984 25.008c-0.23438 4.25 3.0352 8.043 7.2734 8.418l14.891 1.332c4.2344 0.375 7.5156-2.7891 7.2812-7.0391l-1.4297-25.82c2.0547 0.10156 4.1484 0.18359 6.2734 0.26172l-1.3164 25.559c-0.21875 4.25 3.0742 8.0469 7.3125 8.4336l14.852 1.3711c4.2383 0.38672 7.5273-2.7734 7.3086-7.0234l-1.4336-27.809c1.0078 0 2 0.015625 3.0195 0.015625 1.1016 0 2.1797-0.015625 3.2773-0.015625l-1.3594 27.805c-0.20703 4.2578 3.0898 7.4141 7.332 7.0273l14.863-1.3711c4.2383-0.38672 7.5156-4.1836 7.2812-8.4336l-1.4219-25.562c2.1328-0.085938 4.2578-0.16797 6.3242-0.26953l-1.3789 25.832c-0.22266 4.25 3.0508 7.4141 7.2969 7.0391l14.918-1.332c4.2383-0.375 7.5-4.168 7.2422-8.418l-1.5-25.031c1.4609-0.14062 2.9219-0.29297 4.3164-0.44922l3.4961 25.543c0.57812 4.2188 4.3438 6.9883 8.3906 6.1758 4.043-0.81641 8.1914-4.8711 9.2188-9l9.043-36.316c0.15625-0.62891 0.20703-1.1914 0.21094-1.7188 3.8008-14.168 13.836-45.887 29.59-54.82 20.508-11.602 25.75-7.1172 49.707 6.4336 0 0 14.594 5.5547 21.203 2.5977 6.5781-2.918 18.801-7.7969 20.137-20.125 1.3672-12.312-7.0352-25.273-4.457-41.883 2.6445-16.613 3.6328-31.59 25.57-81.988 0 0 12.875-36.148 10.641-80.617l-0.11719 0.007813zm-276.91 176.51c3.4375-15.281 10.938-40.297 16.66-55.59 5.7227-15.281 14.816-15.281 20.211 0 5.3984 15.289 12.914 40.309 16.699 55.59 3.793 15.281-0.62109 30.297-9.8008 33.359-9.1914 3.0586-24.199 3.0586-33.363 0-9.1641-3.0625-13.844-18.07-10.406-33.359zm-96.691-27.414c-55.445-11.273-62.273-107.68 10.047-120.87 116.52-21.316 74.004 137.98-10.047 120.87zm247.59 0c-84.055 17.109-126.58-142.18-10.051-120.87 72.301 13.195 65.473 109.6 10.051 120.87z" />
    <use x="70" y="644" xlink:href="#u" />
    <use x="90.550781" y="644" xlink:href="#b" />
    <use x="104.359375" y="644" xlink:href="#a" />
    <use x="123.347656" y="644" xlink:href="#l" />
    <use x="142.242188" y="644" xlink:href="#c" />
    <use x="155.628906" y="644" xlink:href="#a" />
    <use x="174.617188" y="644" xlink:href="#k" />
    <use x="204.410156" y="644" xlink:href="#j" />
    <use x="224.453125" y="644" xlink:href="#i" />
    <use x="252.453125" y="644" xlink:href="#h" />
    <use x="271.550781" y="644" xlink:href="#g" />
    <use x="281.148438" y="644" xlink:href="#f" />
    <use x="320.070312" y="644" xlink:href="#e" />
    <use x="340.59375" y="644" xlink:href="#g" />
    <use x="350.191406" y="644" xlink:href="#t" />
    <use x="370.234375" y="644" xlink:href="#a" />
    <use x="389.226562" y="644" xlink:href="#b" />
    <use x="70" y="672" xlink:href="#s" />
    <use x="82.183594" y="672" xlink:href="#b" />
    <use x="95.992188" y="672" xlink:href="#d" />
    <use x="115.226562" y="672" xlink:href="#f" />
    <use x="154.152344" y="672" xlink:href="#c" />
    <use x="167.535156" y="672" xlink:href="#r" />
    <use x="187.46875" y="672" xlink:href="#a" />
    <use x="216.207031" y="672" xlink:href="#q" />
    <use x="239.640625" y="672" xlink:href="#d" />
    <use x="258.878906" y="672" xlink:href="#p" />
    <use x="278.8125" y="672" xlink:href="#o" />
    <use x="308.492188" y="672" xlink:href="#e" />
    <use x="329.015625" y="672" xlink:href="#b" />
    <use x="342.820312" y="672" xlink:href="#d" />
    <use x="362.058594" y="672" xlink:href="#n" />
    <use x="371.65625" y="672" xlink:href="#a" />
    <use x="390.648438" y="672" xlink:href="#m" />
    <use x="407.242188" y="672" xlink:href="#c" />
  </g>
</svg>
