<?xml version="1.0" encoding="UTF-8"?>
<svg width="700pt" height="700pt" version="1.1" viewBox="0 0 700 700"
  xmlns="http://www.w3.org/2000/svg" xmlns:xlink="http://www.w3.org/1999/xlink">
  <g>
    <path
      fill="#F8F8F2"
      d="m552.93 336.66c-17 2.6484-21.09 8.0703-31.938 9.9688-26.762 4.6641-99.109-40.012-143.81-66.605 69.574-39.434 137.3-71.734 157.07-69.254 13.996 1.7578 13.559 7.8672 35.637-0.71875 25.664-9.9727 32.098-61.375-14.855-59.281 13.809-32.258-36.266-54.527-51.688-14.688-6.2148 16.043 1.7461 24.18-4.1367 33.5-16.602 26.238-113.82 76.016-149.2 94.914-35.379-18.906-132.6-68.684-149.2-94.926-5.8867-9.3203 2.0781-17.449-4.1367-33.5-15.422-39.844-65.492-17.574-51.688 14.688-46.961-2.0938-40.523 49.309-14.855 59.281 22.074 8.5859 21.645 2.4766 35.637 0.71875 19.773-2.4805 87.496 29.82 157.07 69.254-44.703 26.594-117.05 71.277-143.81 66.605-10.852-1.8945-14.941-7.3203-31.938-9.9688-42.219-6.5625-56.582 55.457 2.6562 57.07-39.363 46.543 19.98 63.719 37.762 42.707 17.793-21.012 5.1953-20.707 11.277-32.199 9.793-18.512 78.203-65.473 151.22-108.5 73.02 43.031 141.43 89.992 151.23 108.51 6.082 11.492-6.5078 11.188 11.277 32.199 17.781 21.016 77.125 3.8398 37.762-42.707 59.234-1.6094 44.871-63.625 2.6523-57.066z" />
    <use x="70" y="644" xlink:href="#t" />
    <use x="90.550781" y="644" xlink:href="#d" />
    <use x="104.359375" y="644" xlink:href="#a" />
    <use x="123.347656" y="644" xlink:href="#g" />
    <use x="142.242188" y="644" xlink:href="#c" />
    <use x="155.628906" y="644" xlink:href="#a" />
    <use x="174.617188" y="644" xlink:href="#f" />
    <use x="204.410156" y="644" xlink:href="#j" />
    <use x="224.453125" y="644" xlink:href="#i" />
    <use x="252.453125" y="644" xlink:href="#e" />
    <use x="272.972656" y="644" xlink:href="#a" />
    <use x="291.960938" y="644" xlink:href="#f" />
    <use x="312.007812" y="644" xlink:href="#d" />
    <use x="325.8125" y="644" xlink:href="#b" />
    <use x="354.796875" y="644" xlink:href="#s" />
    <use x="374.964844" y="644" xlink:href="#g" />
    <use x="393.859375" y="644" xlink:href="#h" />
    <use x="413.792969" y="644" xlink:href="#c" />
    <use x="427.179688" y="644" xlink:href="#b" />
    <use x="446.414062" y="644" xlink:href="#r" />
    <use x="70" y="672" xlink:href="#q" />
    <use x="82.183594" y="672" xlink:href="#d" />
    <use x="95.992188" y="672" xlink:href="#b" />
    <use x="115.226562" y="672" xlink:href="#p" />
    <use x="154.152344" y="672" xlink:href="#c" />
    <use x="167.535156" y="672" xlink:href="#o" />
    <use x="187.46875" y="672" xlink:href="#a" />
    <use x="216.207031" y="672" xlink:href="#n" />
    <use x="239.640625" y="672" xlink:href="#b" />
    <use x="258.878906" y="672" xlink:href="#m" />
    <use x="278.8125" y="672" xlink:href="#h" />
    <use x="308.492188" y="672" xlink:href="#e" />
    <use x="329.015625" y="672" xlink:href="#d" />
    <use x="342.820312" y="672" xlink:href="#b" />
    <use x="362.058594" y="672" xlink:href="#l" />
    <use x="371.65625" y="672" xlink:href="#a" />
    <use x="390.648438" y="672" xlink:href="#k" />
    <use x="407.242188" y="672" xlink:href="#c" />
  </g>
</svg>
