<?xml version="1.0" encoding="UTF-8"?>
<svg width="700pt" height="700pt" version="1.1" viewBox="0 0 700 700"
  xmlns="http://www.w3.org/2000/svg" xmlns:xlink="http://www.w3.org/1999/xlink">
  <g>
    <path
      d="m364.09 272.15c3.8906 2.9727 8.6523 2.0234 13.141-0.88672 2.2617-1.332 4.418-3.0664 6.5938-5.6562 2.1875-2.6016 3.8477-5.5273 4.9609-8.5391 1.1992-3.2422 2.3789-5.8555 3.957-10.512 1.5781-5.418-0.87891-12.816-9.4766-12.816-6.9648 0.68359-13.715 2.2148-20.676 4.0859-9.1172 1.1836-13.715 13.625-11.199 20.41 3.1602 5.6602 7.6211 10.023 12.707 13.914z" />
    <path
      d="m323.68 311.36c0.007813 6.6484 2.125 9.9531 4.4336 8.8398 1.4414-0.76953 3.1562-2.5898 5.418-5.8633 2.1094-3.0508 3.2617-6.4648 3.2695-9.4844 0.023437-8.9492 0.035156-13.422 0.058594-22.371 0.003906-0.89844-1.0391-0.95312-1.7461-0.09375-3.582 4.3594-4.8125 6.3203-7.1562 10.984-1.0156 2.0156-2.875 6.6328-3.3906 9.3984-0.51172 2.7656-0.89453 6.625-0.89453 8.5898z" />
    <path
      d="m288.7 293.36c1.1133 2.4883 2.7734 4.6055 4.9609 6.0234 2.1758 1.4102 4.3281 1.875 6.5938 1.7891 4.4844 0.097657 9.2305-2.3086 13.141-8.2461 5.1094-7.7617 9.5508-15.746 12.707-24.02 2.5117-8.8672-2.082-17.25-11.199-11.449-6.9648 3.4648-13.715 6.5977-20.68 9.75-8.6016 4.7344-11.059 12.613-9.4766 17.383 1.5781 4.0117 2.7578 6.0938 3.957 8.7695z" />
    <path
      d="m343.81 310.07c2.2617 1.3555 3.9766 1.7344 5.418 1.2969 2.3125-0.82031 4.4297-5.8555 4.4336-12.508 0-1.9609-0.38281-5.5117-0.89453-7.8555s-2.3828-5.4258-3.3906-6.5898c-2.3086-2.6641-3.5742-3.6289-7.1562-4.9453-0.70312-0.25781-1.7461 0.68359-1.7461 1.5781 0.023438 8.9297 0.035157 13.395 0.058594 22.32 0.007813 3.0117 1.1641 5.4375 3.2695 6.7031z" />
    <path
      d="m88.289 95.887v368.23c179.46 89.707 345.83-89.699 525.29 0v-368.23c-179.46-89.703-345.83 89.703-525.29 0zm193.41 97.457c16.062-14.328 43.77-29.691 63.766-36.977 0.039062-0.015626 0.078125-0.03125 0.11719-0.046876 11.516-4.8555 38.875-8.168 48.297-3.0469 16.148 8.7734 25.129 26.945 25.895 46.602 0.76953 19.812-7.5508 32.625-14.305 40.48-0.88281-5.3672-1.3906-11.031-0.73047-16.684 0.007812-0.066406 0.011718-0.13281 0.015624-0.19922 0.089844-2.4453 1.0664-5.2344 2.1016-8.1641 1.0664-3.0234 2.1719-6.125 2.4766-9.3516 0.003906-0.046875 0.007812-0.070312 0.011718-0.11719 0.75781-8.3047 1.3086-14.418-3.5859-18.301-1.2383 1.5156-1.8594 2.2852-3.0977 3.8438 2.957 2.2539 2.7344 6.2773 2 14.352-0.003906 0.042969-0.003906 0.066406-0.007812 0.10547-0.25 2.6367-1.25 5.4961-2.2188 8.2773-1.1016 3.1641-2.2383 6.4609-2.375 9.6211-1.1133 9.4648 0.74609 18.363 2.3867 26.266 0.45703 2.207 0.89062 4.293 1.2383 6.293 1.0078 10.008-1.9492 18.906-5.2461 22.355-2.8555 2.9883-8.0586 5.7461-11.492 7.7422-0.91797 0.53516-1.7383 1.0273-2.3477 1.4102-3.6758 2.3047-7.8789 5.9336-11.926 10.523-0.058593 0.066406-0.11719 0.13672-0.17188 0.20703-2.6445 3.4414-4.3906 6.8555-5.3242 10.359-0.58984 2.2109-0.85938 4.457-0.80859 6.7852l-0.027344 0.054687c-7.3984 5.5508-17.156 10.051-26.93 14.281-0.066406 0.027344-0.12891 0.058594-0.19531 0.085937-0.89062 0.39453-1.7617 0.77344-2.6172 1.1445-11.203 4.8164-19.309 7.1602-25.113 7.1641-0.007812-0.035156-0.011719-0.050781-0.019531-0.085937 0.054688-2.5664-0.23438-4.7109-0.91016-6.5664-0.92578-2.543-2.5859-4.5547-5.1445-6.3828-0.09375-0.066406-0.19531-0.125-0.30859-0.16797-0.48438-0.19922-0.72656-0.29688-1.207-0.5-3.2227-1.3555-6.0078-2.5547-10.754-2.5117-0.26953-0.007812-0.40234-0.015624-0.67188-0.023437-4.9453-0.19141-9.6445-0.66406-13.066-3.1719-3.3047-2.4219-6.2695-10.754-5.2578-20.98 0.34766-2.0781 0.78125-4.2617 1.2383-6.5781 1.6406-8.293 3.4961-17.738 2.3828-26.883-0.13672-3.1211-1.2734-6.0977-2.375-9-0.96875-2.5547-1.9688-5.2109-2.2148-7.7891-0.003907-0.046875-0.007813-0.070312-0.011719-0.11719-0.73438-7.9297-0.95312-11.828 2-14.777-1.2383-1.2656-1.8594-1.9062-3.0977-3.2109-4.8945 4.7305-4.3477 10.559-3.5859 18.781 0.003906 0.050782 0.007813 0.078126 0.011719 0.12891 0.30469 3.1914 1.4102 6.1758 2.4766 9.0352 1.0352 2.7734 2.0156 5.3789 2.1016 7.8047 0.003906 0.066407 0.007812 0.12891 0.015625 0.19531 0.73047 5.9336 0.078125 12.113-0.92188 17.996-8.2461-8.8594-13.762-24.344-14.582-39.926-0.97656-18.516 8.5117-36.418 24.121-50.34zm99.047 102.56c-0.69922 1.8906-1.2695 3.5-1.793 5.0586-1.0156 3.0273-1.8945 5.8789-3.0547 10.164-1.5586 5.7578-2.25 9.7852-3.0742 16.164-0.046875 0.35938-0.09375 0.72266-0.14062 1.0977-0.10938 0.85938-0.21875 1.7578-0.33203 2.7148-0.71875 1.4922-1.7656 3.0508-3.0938 4.6523-0.023438-2.4023-0.035157-3.6016-0.058594-6.0039-0.003906-0.54688-0.007813-0.81641-0.015625-1.3633-0.050781-5.0938-0.078125-7.6445-0.12891-12.738 0.84375-0.69141 2.0273-2.6523 2.0273-2.6523 0.066406-2.9023 0.76562-5.5781 2.1602-8.25 0.65625-1.2578 1.4531-2.5156 2.4375-3.7891 1.7031-1.8867 3.4023-3.5781 5.0625-5.0469zm-13.473 29.965c-0.875 0.91016-1.7617 1.7734-2.6641 2.5977-0.85547 0.78516-1.7266 1.5391-2.6133 2.2617-0.003906-0.87109-0.007812-1.3047-0.011719-2.1758-0.015625-3.1094-0.023437-4.6641-0.035156-7.7734v-0.11719c2.0352-1.2344 3.4336-2.1953 5.2344-3.543 0.035156 3.5 0.054688 5.2539 0.089844 8.7539zm-7.1484 8.293c0.003906 0.79297 0.003906 1.1914 0.007813 1.9844 0.015625 3.2344 0.023437 4.8516 0.039062 8.0859-1.8477 1.4297-3.8203 2.832-5.8789 4.1836-0.027344-3.1758-0.042969-4.7656-0.070313-7.9414-0.007812-0.96875-0.011718-1.4531-0.023437-2.4219 2.0781-1.2344 4.043-2.5156 5.9219-3.8867zm-5.9414 2.0039c-0.027344-2.8867-0.039062-4.332-0.066406-7.2227-0.011719-1.5039-0.019532-2.2539-0.035156-3.7578 0.011718-0.054688 0.019531-0.082032 0.035156-0.13672 2.5195-1.2578 3.6133-1.8945 5.9453-3.2617 0.011719 2.7344 0.019532 4.1055 0.03125 6.8398 0.007813 1.4297 0.011719 2.1445 0.015625 3.5742-1.8711 1.4062-3.8398 2.707-5.9297 3.9609zm-1.7656 13.453c-1.4648 0.91406-2.9648 1.7812-4.4805 2.6133-0.17578 0.097656-0.35156 0.20312-0.53125 0.29688v-0.23438c-0.011718-2.6836-0.019531-4.0234-0.03125-6.707-0.007812-1.5234-0.011718-2.2852-0.015625-3.8086 1.7266-0.87109 3.3789-1.7461 4.9648-2.6406 0.011719 1.0898 0.015625 1.6367 0.023437 2.7266 0.027344 3.1016 0.042969 4.6523 0.070313 7.7539zm-12.656-4.2266c1.9922-0.90625 3.8984-1.793 5.7148-2.6797 0.007812 1.7148 0.011719 2.5742 0.019531 4.2891 0.011719 2.2031 0.015625 3.3047 0.023438 5.5117 0 0.40234 0.003906 0.60156 0.003906 1.0039-1.9141 0.97266-3.8438 1.8594-5.7617 2.6328v-10.754zm5.6562-15.848v0.13672c0 0.33203 0.003906 0.49609 0.003906 0.82812 0.019531 4.1289 0.027344 6.1953 0.046875 10.328-1.7969 0.875-3.7031 1.7656-5.707 2.6719v-11.773c1.6094-0.69922 3.2188-1.4062 4.8203-2.1289 0.28125-0.125 0.55469-0.25781 0.83594-0.38672v0.22266 0.097656zm-7.5391 14.816c-2.082 0.94141-4.0938 1.7695-6.0312 2.4766 0.019532-4.7031 0.03125-7.0547 0.050782-11.758 0 0 2.2148-0.90234 3.8828-1.6133 0.67969-0.28906 1.3945-0.60547 2.0938-0.91016v11.801zm-13.082 4.6094c0.03125-3.6055 0.046875-5.4062 0.082031-9.0078 0.007813-0.93359 0.011719-1.3984 0.019532-2.332 1.9102-0.62891 5.1211-1.7617 5.1211-1.7617v0.28516c-0.019532 4.5391-0.03125 6.8086-0.050782 11.348-1.7852 0.59375-3.5078 1.0898-5.1719 1.4727zm5.1641 0.39453c-0.007813 1.9688-0.011719 2.9492-0.023438 4.918-0.007812 1.8047-0.011718 2.707-0.019531 4.5117 0 0.38281-0.003906 0.57031-0.003906 0.95312-0.70703 0.22266-1.3945 0.41797-2.0781 0.61328-1.0703 0.30078-2.125 0.58203-3.1484 0.8125 0.023438-2.5547 0.035156-3.832 0.058594-6.3828 0.015625-1.5664 0.019531-2.3477 0.035156-3.9102 1.6641-0.39453 3.4023-0.91406 5.1797-1.5117zm-7.0547 1.8984c-0.011718 1.4766-0.019531 2.2148-0.035156 3.6914-0.023438 2.6445-0.035156 3.9648-0.058594 6.6055-2.0195 0.37109-3.9414 0.57812-5.7695 0.58984 0.011719-2.707 0.019531-4.0625 0.03125-6.7695 0.007813-1.3633 0.007813-2.0469 0.015625-3.4102 1.8516-0.074219 3.793-0.31641 5.8125-0.71094zm-11.262-1.7148c-0.53125-0.097656-1.0703-0.18359-1.5859-0.31641 0.035156-3.5273 0.054688-5.2891 0.089844-8.8164 1.9141 0.046876 2.6484 0.25 5.0898-0.19531 0.011718 0.050781 0.019531 0.074219 0.03125 0.125-0.011719 2.6562-0.019532 3.9844-0.03125 6.6406-0.003907 1.1914-0.007813 1.7891-0.015626 2.9805-1.2383-0.050782-2.4219-0.20703-3.5781-0.41797zm3.5703 2.4453c-0.007812 1.3984-0.011719 2.0977-0.015625 3.4961-0.011719 2.6406-0.019531 3.9609-0.03125 6.6016-1.8398-0.12891-3.5781-0.48438-5.2266-1.0742 0.019532-2.1328 0.03125-3.1992 0.054688-5.332 0.015625-1.7188 0.027344-2.5742 0.042969-4.293 1.6523 0.35547 3.3711 0.56641 5.1797 0.60547zm-6.9453-11.312c-0.046876 4.5273-0.066407 6.7891-0.11328 11.316-0.015625 1.4883-0.023437 2.2305-0.039062 3.7148-0.019532 1.8047-0.027344 2.707-0.046875 4.5117-1.168-0.57812-2.2891-1.293-3.3594-2.1562-0.10938-0.83594-0.21484-1.6211-0.32031-2.3711-0.046875-0.33984-0.09375-0.67578-0.14062-1.0039-0.81641-5.7383-1.5039-9.2773-3.0586-14.023-1.2734-3.8828-2.2109-6.3242-3.3945-9.0547-0.53906-1.2461-1.1484-2.5625-1.8945-4.125 1.7812 0.41016 3.3164 1.0977 5.1523 1.8945 0.42578 0.18359 0.63672 0.27344 1.0625 0.45703 0.85938 0.64453 1.5625 1.293 2.1445 1.9492 1.8359 2.0781 2.418 4.2969 2.4922 6.9297 0.60547 0.78516 0.90625 1.1758 1.5117 1.957zm-99.043-31.008c-0.92188-3.0391-0.48828-5.2266 1.2383-6.6016 1.9883-1.582 4.4648-1.8477 6.7852-2.2969 0.011719-0.003907 0.023438-0.003907 0.03125-0.007813 0.97656-1.3359 2.3008-3.1797 3.2773-4.5742 0.19141-3.1875 0.5625-6.3164 1.8828-8.8594 0.19922-0.27344 0.40234-0.55469 0.59766-0.82812 3.9453-3.957 8.3672-0.53125 12.254 2.8594 0.25391 0.23828 0.51172 0.47656 0.76562 0.71094 5.125 5.1094 6.8516 9.1328 8.3828 12.805 1.1719 2.8164 2.1992 5.2852 4.625 7.8672 0.32422 0.34375 0.69141 0.65234 1.0703 0.92188 9.0859 6.4883 17.23 10.223 25.836 13.203 2.3906 0.82812 4.8242 1.5938 7.3164 2.3086 0.18359 0.41016 0.27734 0.61719 0.46484 1.0273 0.30078 0.66016 0.59766 1.3203 0.89453 1.9727 0.32031 0.71094 0.63672 1.4141 0.94531 2.1172 2.5039 5.6836 4.5742 11.188 4.8828 17.316-0.13281 0.64453-0.23828 1.3047-0.34375 1.9609-0.13672 0.83594-0.24609 1.6797-0.33984 2.5352-0.089844 0.82031-0.15625 1.6445-0.20312 2.4766-0.015625 0.035156-0.023438 0.050781-0.039062 0.085937-16.469-4.0859-33.223-11.109-49.809-24.043-0.50391-0.39453-1.0352-0.74219-1.5859-1.0117-3.1758-1.5391-5.6016-2.1172-8.1523-2.8555-3.3398-0.96484-7.1328-2.2344-12.633-7.375-4.3867-4.0977-7.0742-8.1914-8.1484-11.723zm57.242 96.328c-0.99609 0.55859-1.8477 1.3281-2.5117 2.2422-1.7031 2.3633-3.2305 4.9609-4.6094 7.2812-0.089843 0.15234-0.13281 0.22656-0.22266 0.37891-1.0195 1.7773-2.4258 3.2383-3.7852 4.6133-0.46875 0.47656-0.92188 0.92969-1.3477 1.3828-0.64844 0.49609-1.293 0.98047-1.9414 1.4609-1.9414 0.98828-3.9023 1.2812-5.7344 0.88281-0.73047-0.16016-1.4414-0.42969-2.1211-0.80469-1.6445-0.91406-3.8242-2.8945-5.2891-6.8984-0.20703-0.90625-0.41406-1.8125-0.62109-2.7227-0.11328-1.1211-0.20703-2.1758-0.30078-3.1914-0.20703-2.2656-0.39453-4.3242-0.69922-6.4375-0.23828-1.6484-1.0078-3.3555-2.1562-4.8867-0.67187-0.89844-1.3359-1.7852-2.0078-2.6953-1.543-2.0938-3.1406-4.3047-5.0352-7.1133-2.1016-3.2461-3.1289-6.4453-2.9531-8.9297 0.074219-1.0312 0.34766-1.9102 0.80859-2.6328 1.1094-1.7383 3.3125-2.2344 5.8008-1.832 6.5156 1.0547 9.8711 2.7578 12.859 4.3164 2.3867 1.2422 4.4648 2.2891 8.4297 1.9258 0.35938-0.03125 0.72656-0.10547 1.0703-0.19922 12.223-3.3359 22.254-9.9414 32.859-17.957 0.875-0.66016 1.3125-0.99609 2.1875-1.6719 0.19141 0.31641 0.28906 0.47266 0.48047 0.78906 0.035157 0.47266 0.066407 0.94531 0.11328 1.4141 0.082031 0.81641 0.17188 1.6328 0.28906 2.4375 0.28125 1.8906 0.69141 3.7383 1.168 5.4609 0.94141 3.4258 4.8672 9.9492 4.8672 9.9492 0.44141 0.70312 0.66016 1.0547 1.1016 1.7539-12.281 10.148-18.426 14.781-30.707 21.684zm96.133-39.941c-8.2109 6.4844-13.613 9.793-23.887 14.172-10.094 4.3008-15.57 5.7266-24.09 5.8984-4.8047-0.12109-9.8125-2.8086-13.543-6.7578-2.5078-2.6562-4.418-5.9062-5.3203-9.1641-0.75-2.7031-1.2617-5.7109-1.457-8.7578-0.14062-2.1484-0.13672-4.3164 0.015625-6.457 0.14453-2.0078 0.40625-3.9844 0.81641-5.875 0.027344-0.13281 0.042969-0.19531 0.070313-0.32813-0.003907-0.125-0.007813-0.1875-0.011719-0.3125-0.25781-6.3164-2.207-11.934-4.543-17.355-0.61328-1.4219-1.2539-2.8359-1.8984-4.2383 0.77734 0.058594 1.5625 0.10547 2.3555 0.14453 0.30469 0.015625 0.45312 0.019531 0.75781 0.035156 0.59375 0 0.49219 0 1.0156 0.046875 0 0 1.4688 3.1797 2 4.3516 1.5742 3.4727 2.5664 6.0078 4.0625 10.594 1.5117 4.6367 2.168 7.9766 2.9648 13.574 0.027344 0.20312 0.058594 0.41016 0.085938 0.61719 0.14453 1.0312 0.29297 2.1328 0.44922 3.3438 0.078125 0.14844 0.11719 0.22266 0.19141 0.37109 5.7461 4.8594 12.965 5.3984 20.461 3.9453 5.2969-1.0273 10.746-3.0547 15.891-5.0859 0.65234-0.25781 1.3086-0.52344 1.9688-0.80078 4.0859-1.7383 8.168-3.9375 12.035-6.3477 10.02-6.2461 18.535-13.824 21.559-20.367 0 0 0.085937-0.13281 0.09375-0.19531v-0.011719c0.11328-0.94922 0.21875-1.8242 0.32422-2.6719 0.12109-0.98438 0.24219-1.9062 0.35938-2.7812 0.75-5.6094 1.4102-9.2891 2.8438-14.555 1.3945-5.1367 2.3516-8.1602 3.7109-12.008 0.59766-1.6875 1.2852-3.543 2.1523-5.8125 0.73828-0.53516 1.4727-1.0234 2.1719-1.4531 0.61328-0.375 1.3789-0.83203 2.2383-1.3164 0.082031-0.046875 0.17578-0.097656 0.25781-0.14453-0.71484 1.8945-1.4258 3.8047-2.1055 5.7266-2.2969 6.5078-4.1953 13.141-4.4492 19.516-0.003906 0.12891-0.007813 0.19141-0.011719 0.32031 0.027344 0.11328 0.042969 0.17188 0.070313 0.28906 0.35156 1.4297 0.59766 2.9844 0.75391 4.6172 0.23828 2.5039 0.24609 5.207 0.035156 7.9766-0.22656 2.9375-0.72266 5.9648-1.4258 8.8906-0.88672 3.7031-2.8242 8.0234-5.375 12.262-3.7305 6.1914-8.7461 12.297-13.586 16.117zm87.5-2.3867c-1.8594 1.1484-3.75 1.875-5.7344 2.668-0.14844 0.058594-0.29688 0.12109-0.44922 0.18359-1.9688 0.80859-3.1992 2.75-3.3789 5.2227 0 0.011718-0.003907 0.023437-0.003907 0.039062-0.25391 3.3672-0.51953 6.8242-1.9219 9.9531-0.58594 0.80469-1.1641 1.6055-1.7461 2.4219-1.4492 1.2344-3.043 1.7031-4.8359 1.4805-0.25391-0.03125-0.50781-0.074219-0.76562-0.13281-2.5469-0.58203-5.2266-2.5312-8.7695-6.1641-2.8945-2.5898-4.0078-5.0508-5.082-7.4609-1.0156-2.2695-2.0586-4.625-4.8086-7.3281-0.66797-0.65625-1.4453-1.1992-2.2812-1.6094-12.344-6.0039-18.516-7.8164-30.859-10.555 0.48828-0.77734 0.95312-1.5547 1.4062-2.332 0.45312-0.78516 0.88281-1.5664 1.293-2.3477 1.8281-3.4883 3.2031-6.957 3.957-10.086 0.46094-1.9062 0.84766-3.8672 1.1289-5.8203 0.12109-0.84375 0.21484-1.6875 0.29688-2.5273 0.085938-0.85156 0.14844-1.6992 0.19531-2.543 0-0.003906 0-0.003906 0.003906-0.007813 14.129 3.1406 21.195 5.418 35.324 13.637 3.4023 1.8203 6.2109 1.9609 9.2969 1.7773 6.1367-0.36328 11.027 3.0195 14.938 6.4688 0.0625 0.054687 0.12109 0.10938 0.17969 0.16797 3.0859 3.0391 4.8867 6.1445 5.3477 8.8828 0.3125 1.8711 0.003906 4.3281-2.7227 6.0078zm16.496-54.105c-0.16016 0.078125-0.33203 0.14453-0.51562 0.19531-2.2617 0.625-6.0039-0.92969-10.824-3.7852-3.9922-1.7422-6.5859-3.6992-8.875-5.3789-2.5859-1.8984-4.6445-3.3672-8.9102-3.1055-0.16016 0.007812-0.32422 0.027343-0.48047 0.054687-19.707 3.1406-29.559 8.9531-49.266 22.996-0.054688-0.83203-0.12891-1.6406-0.22656-2.4375-0.097656-0.80469-0.21484-1.5859-0.35547-2.3477-0.09375-0.51562-0.17969-1.0391-0.29297-1.5312 0.29297-5.9883 2.1914-12.215 4.5352-18.625 0.42969-1.1797 0.87891-2.3672 1.332-3.5586 0.28516-0.74609 0.57031-1.4961 0.85938-2.2461 0.20312-0.52734 0.30469-0.79297 0.50781-1.3203 5.7773-3.9531 11.168-7.2031 16.426-9.9414 5.2617-2.7383 10.41-4.9844 15.754-6.7656 0.5-0.16797 0.98047-0.39453 1.3867-0.70312 2.7852-2.0898 3.832-4.293 4.9336-6.6328 1.1758-2.4961 2.3906-5.1094 5.625-6.5273 3.3398-2.043 6.5312-2.1719 9.4844-0.45312 1.918 1.1172 3.6406 2.9609 5.0352 5.3125 0.45703 1.0312 0.90625 2.0586 1.3633 3.1016 1.5977 5.1914 2.4766 9.8945 2.6523 14.156 0.066406 1.6406 0.75 3.5781 1.9141 5.457 3.3438 5.418 5.6172 9.5977 7.7812 14.27 2.1328 4.5977 2.3125 8.7578 0.15234 9.8164z" />
    <use x="70" y="644" xlink:href="#u" />
    <use x="90.550781" y="644" xlink:href="#b" />
    <use x="104.359375" y="644" xlink:href="#a" />
    <use x="123.347656" y="644" xlink:href="#l" />
    <use x="142.242188" y="644" xlink:href="#d" />
    <use x="155.628906" y="644" xlink:href="#a" />
    <use x="174.617188" y="644" xlink:href="#k" />
    <use x="204.410156" y="644" xlink:href="#j" />
    <use x="224.453125" y="644" xlink:href="#i" />
    <use x="252.453125" y="644" xlink:href="#h" />
    <use x="271.578125" y="644" xlink:href="#t" />
    <use x="281.175781" y="644" xlink:href="#g" />
    <use x="290.773438" y="644" xlink:href="#b" />
    <use x="304.582031" y="644" xlink:href="#g" />
    <use x="314.179688" y="644" xlink:href="#f" />
    <use x="330.777344" y="644" xlink:href="#c" />
    <use x="350.015625" y="644" xlink:href="#e" />
    <use x="70" y="672" xlink:href="#s" />
    <use x="82.183594" y="672" xlink:href="#b" />
    <use x="95.992188" y="672" xlink:href="#c" />
    <use x="115.226562" y="672" xlink:href="#r" />
    <use x="154.152344" y="672" xlink:href="#d" />
    <use x="167.535156" y="672" xlink:href="#q" />
    <use x="187.46875" y="672" xlink:href="#a" />
    <use x="216.207031" y="672" xlink:href="#p" />
    <use x="239.640625" y="672" xlink:href="#c" />
    <use x="258.878906" y="672" xlink:href="#o" />
    <use x="278.8125" y="672" xlink:href="#e" />
    <use x="308.492188" y="672" xlink:href="#n" />
    <use x="329.015625" y="672" xlink:href="#b" />
    <use x="342.820312" y="672" xlink:href="#c" />
    <use x="362.058594" y="672" xlink:href="#m" />
    <use x="371.65625" y="672" xlink:href="#a" />
    <use x="390.648438" y="672" xlink:href="#f" />
    <use x="407.242188" y="672" xlink:href="#d" />
  </g>
</svg>
